<?xml version="1.0" encoding="UTF-8"?>
<svg version="1.1" xmlns="http://www.w3.org/2000/svg" width="225" height="225">
<path d="M0 0 C74.25 0 148.5 0 225 0 C225 74.25 225 148.5 225 225 C150.75 225 76.5 225 0 225 C0 150.75 0 76.5 0 0 Z " fill="#633321" transform="translate(0,0)"/>
<path d="M0 0 C26.4 0 52.8 0 80 0 C80.99 2.31 81.98 4.62 83 7 C83.98020375 8.0194119 84.97803008 9.02246356 86 10 C86.66666667 11.66666667 87.33333333 13.33333333 88 15 C88.98020375 16.0194119 89.97803008 17.02246356 91 18 C91.495 19.485 91.495 19.485 92 21 C93.99107248 22.01765927 95.99218823 23.01577854 98 24 C100.375 26.0625 100.375 26.0625 102 28 C102 28.66 102 29.32 102 30 C102.61875 30.061875 103.2375 30.12375 103.875 30.1875 C106 31 106 31 107.125 33 C108.27669561 36.94867066 109.10772194 40.98474874 110 45 C98.615 45.495 98.615 45.495 87 46 C93.6 46.33 100.2 46.66 107 47 C106.34 47.99 105.68 48.98 105 50 C105.81880887 52.16352397 105.81880887 52.16352397 107.9375 52.875 C110 54 110 54 112 58 C107.545 58.495 107.545 58.495 103 59 C103 59.33 103 59.66 103 60 C106.3 60.33 109.6 60.66 113 61 C113 61.33 113 61.66 113 62 C107.06 62.495 107.06 62.495 101 63 C101 63.66 101 64.32 101 65 C109.58 64.67 118.16 64.34 127 64 C125.515 63.01 125.515 63.01 124 62 C124.61875 61.773125 125.2375 61.54625 125.875 61.3125 C128.61410209 59.62070165 129.05024472 58.00755839 130 55 C127.69 55 125.38 55 123 55 C122.505 55.99 122.505 55.99 122 57 C120.875 54.6875 120.875 54.6875 120 52 C120.66 51.01 121.32 50.02 122 49 C124.9795099 48.73346054 127.7488582 48.65232216 130.7265625 48.70703125 C131.58937836 48.71127609 132.45219421 48.71552094 133.34115601 48.71989441 C136.10275197 48.73671608 138.86362383 48.77437402 141.625 48.8125 C143.49478114 48.82754236 145.3645737 48.84123154 147.234375 48.85351562 C151.82319658 48.88663094 156.41147544 48.93843661 161 49 C161 48.34 161 47.68 161 47 C164.63 47 168.26 47 172 47 C172 47.33 172 47.66 172 48 C169.525 48.495 169.525 48.495 167 49 C167 50.32 167 51.64 167 53 C177.23 53 187.46 53 198 53 C198 58 198 58 197 60 C194.41682273 60.39465208 191.85811719 60.50806152 189.25 60.65625 C188.5075 60.7696875 187.765 60.883125 187 61 C186.67 61.66 186.34 62.32 186 63 C186.33 63.99 186.66 64.98 187 66 C205.81 66.495 205.81 66.495 225 67 C225 83.5 225 100 225 117 C150.75 117 76.5 117 0 117 C0 78.39 0 39.78 0 0 Z M112 55 C112.99 55.495 112.99 55.495 114 56 C113.01 56.495 113.01 56.495 112 57 C112 56.34 112 55.68 112 55 Z " fill="#702A11" transform="translate(0,108)"/>
<path d="M0 0 C14.89584787 -0.02736531 29.79163946 -0.05093521 44.6875 -0.0625 C45.78234711 -0.06335602 46.87719421 -0.06421204 48.00521851 -0.06509399 C81.68225731 -0.08837284 115.33375045 0.07521115 149 1 C149 1.99 149 2.98 149 4 C148.01 4.66 147.02 5.32 146 6 C143.17973977 9.15205555 142.04546661 10.81813357 141 15 C146.61 15 152.22 15 158 15 C158 16.65 158 18.3 158 20 C157.37351563 20.19335938 156.74703125 20.38671875 156.1015625 20.5859375 C154.87566406 20.97652344 154.87566406 20.97652344 153.625 21.375 C152.40683594 21.75785156 152.40683594 21.75785156 151.1640625 22.1484375 C148.83540815 22.89854283 148.83540815 22.89854283 147 25 C147.33 25.66 147.66 26.32 148 27 C133.81 26.67 119.62 26.34 105 26 C105 26.99 105 27.98 105 29 C103.25183142 29.50636607 101.50137737 30.00484619 99.75 30.5 C98.77546875 30.7784375 97.8009375 31.056875 96.796875 31.34375 C94 32 94 32 90 32 C90 32.66 90 33.32 90 34 C92.31 34.33 94.62 34.66 97 35 C97 34.34 97 33.68 97 33 C98.65 33 100.3 33 102 33 C101.01 33.495 101.01 33.495 100 34 C100 34.99 100 35.98 100 37 C101.98 37 103.96 37 106 37 C106 37.33 106 37.66 106 38 C103.36 38 100.72 38 98 38 C98 37.34 98 36.68 98 36 C93.05 36.495 93.05 36.495 88 37 C94.93 37.66 101.86 38.32 109 39 C109.33 39.99 109.66 40.98 110 42 C101.97875848 42.71413279 94.05358138 43.14525497 86 43 C85.51273079 51.92822453 85.51273079 51.92822453 89 60 C91.84096854 62.84096854 93.76361873 62.27664613 97.74462891 62.31884766 C98.43742447 62.32889328 99.13022003 62.3389389 99.8440094 62.34928894 C102.13818518 62.38022553 104.43224373 62.39718476 106.7265625 62.4140625 C108.31555192 62.43276577 109.90453133 62.45233854 111.49349976 62.4727478 C115.67901718 62.52416409 119.86456683 62.56373877 124.05023193 62.60089111 C128.32002803 62.64087143 132.58968895 62.69199093 136.859375 62.7421875 C145.23949113 62.83905915 153.61967393 62.92342772 162 63 C162 67 162 67 160.0625 69.0625 C159.381875 69.701875 158.70125 70.34125 158 71 C157.67 71.99 157.34 72.98 157 74 C143.635 74.495 143.635 74.495 130 75 C130 75.33 130 75.66 130 76 C122.60290309 76.17687866 115.20564686 76.34283967 107.80799294 76.49477577 C104.37314896 76.56566714 100.9384739 76.64035018 97.50390625 76.72363281 C93.55750086 76.81916177 89.61085002 76.89831757 85.6640625 76.9765625 C83.80933823 77.02485703 83.80933823 77.02485703 81.91714478 77.0741272 C80.77611298 77.09429901 79.63508118 77.11447083 78.45947266 77.13525391 C76.94723618 77.16856308 76.94723618 77.16856308 75.40444946 77.20254517 C73 77 73 77 71 75 C71 74.34 71 73.68 71 73 C65.06 72.67 59.12 72.34 53 72 C52.505 73.485 52.505 73.485 52 75 C51.34 75 50.68 75 50 75 C50 75.66 50 76.32 50 77 C33.5 77 17 77 0 77 C0 51.59 0 26.18 0 0 Z M52 69 C52.33 69.66 52.66 70.32 53 71 C58.94 71 64.88 71 71 71 C70.67 70.01 70.34 69.02 70 68 C63.88514973 67.90293888 58.06696699 68.22959149 52 69 Z M66 73 C68 74 68 74 68 74 Z " fill="#6C2F1B" transform="translate(0,0)"/>
<path d="M0 0 C42.57 0 85.14 0 129 0 C129 21.45 129 42.9 129 65 C78.51 65 28.02 65 -24 65 C-24 64.67 -24 64.34 -24 64 C-29.94 63.67 -35.88 63.34 -42 63 C-42 62.67 -42 62.34 -42 62 C-37.05 61.67 -32.1 61.34 -27 61 C-27 60.67 -27 60.34 -27 60 C-31.95 59.67 -36.9 59.34 -42 59 C-41.67 58.01 -41.34 57.02 -41 56 C-33.08 55.505 -33.08 55.505 -25 55 C-25 54.01 -25 53.02 -25 52 C-20.05 52 -15.1 52 -10 52 C-10 51.34 -10 50.68 -10 50 C-14.62 50 -19.24 50 -24 50 C-24.495 47.525 -24.495 47.525 -25 45 C-20.05 45 -15.1 45 -10 45 C-10 44.34 -10 43.68 -10 43 C-9.24074219 42.95101562 -8.48148438 42.90203125 -7.69921875 42.8515625 C-6.70535156 42.77679688 -5.71148437 42.70203125 -4.6875 42.625 C-3.20830078 42.52058594 -3.20830078 42.52058594 -1.69921875 42.4140625 C1.21528433 42.16134528 1.21528433 42.16134528 4 40 C3.14535156 39.87882812 2.29070312 39.75765625 1.41015625 39.6328125 C0.30542969 39.46523438 -0.79929688 39.29765625 -1.9375 39.125 C-3.59072266 38.88136719 -3.59072266 38.88136719 -5.27734375 38.6328125 C-6.17582031 38.42398438 -7.07429688 38.21515625 -8 38 C-8.33 37.34 -8.66 36.68 -9 36 C-5.37 36 -1.74 36 2 36 C2 36.66 2 37.32 2 38 C2.66 37.67 3.32 37.34 4 37 C4 36.01 4 35.02 4 34 C3.01 33.67 2.02 33.34 1 33 C1 33.66 1 34.32 1 35 C-1.97 35 -4.94 35 -8 35 C-7.34 34.67 -6.68 34.34 -6 34 C-6 33.34 -6 32.68 -6 32 C-1.05 31.01 3.9 30.02 9 29 C9 28.01 9 27.02 9 26 C22.86 26 36.72 26 51 26 C36.15 25.67 21.3 25.34 6 25 C6 24.67 6 24.34 6 24 C3.69 23.67 1.38 23.34 -1 23 C-1 22.67 -1 22.34 -1 22 C-8.92 21.67 -16.84 21.34 -25 21 C-25 20.01 -25 19.02 -25 18 C-11.14 17.67 2.72 17.34 17 17 C17 16.67 17 16.34 17 16 C26.24 15.67 35.48 15.34 45 15 C45 14.34 45 13.68 45 13 C34.77 13 24.54 13 14 13 C13.505 11.515 13.505 11.515 13 10 C12.34 9.34 11.68 8.68 11 8 C12.11560303 7.97494385 13.23120605 7.9498877 14.38061523 7.92407227 C18.5049259 7.83016579 22.6290615 7.72990486 26.75317383 7.62768555 C28.5408927 7.584273 30.32865474 7.54260271 32.11645508 7.50268555 C34.68063391 7.4451354 37.24459412 7.38139797 39.80859375 7.31640625 C40.6127623 7.29969376 41.41693085 7.28298126 42.24546814 7.26576233 C45.92669998 7.50779304 45.92669998 7.50779304 49 6 C47.74864258 5.98541748 46.49728516 5.97083496 45.20800781 5.95581055 C40.56351197 5.89782073 35.91950061 5.8205877 31.27539062 5.73754883 C29.26570501 5.70430274 27.25592609 5.67626981 25.24609375 5.65356445 C22.35636653 5.62001278 19.46749407 5.56769663 16.578125 5.51171875 C15.23104462 5.50213387 15.23104462 5.50213387 13.85675049 5.49235535 C6.30590867 5.31454427 6.30590867 5.31454427 3 2 C2.01 1.34 1.02 0.68 0 0 Z " fill="#73402E" transform="translate(96,0)"/>
<path d="M0 0 C1.40185547 0.00966797 1.40185547 0.00966797 2.83203125 0.01953125 C4.28416016 0.04466797 4.28416016 0.04466797 5.765625 0.0703125 C6.74917969 0.07933594 7.73273438 0.08835938 8.74609375 0.09765625 C11.16951907 0.12118465 13.59244722 0.15405882 16.015625 0.1953125 C16.015625 0.5253125 16.015625 0.8553125 16.015625 1.1953125 C14.365625 1.1953125 12.715625 1.1953125 11.015625 1.1953125 C11.015625 1.8553125 11.015625 2.5153125 11.015625 3.1953125 C13.655625 3.5253125 16.295625 3.8553125 19.015625 4.1953125 C19.015625 4.5253125 19.015625 4.8553125 19.015625 5.1953125 C22.645625 5.5253125 26.275625 5.8553125 30.015625 6.1953125 C30.015625 6.5253125 30.015625 6.8553125 30.015625 7.1953125 C32.985625 7.5253125 35.955625 7.8553125 39.015625 8.1953125 C39.015625 8.5253125 39.015625 8.8553125 39.015625 9.1953125 C44.955625 9.5253125 50.895625 9.8553125 57.015625 10.1953125 C57.015625 10.5253125 57.015625 10.8553125 57.015625 11.1953125 C57.94375 11.2984375 58.871875 11.4015625 59.828125 11.5078125 C63.19870739 12.23480086 64.07067081 12.46311494 66.015625 15.1953125 C66.42050359 19.22790327 66.14668535 23.13244155 66.015625 27.1953125 C59.415625 27.1953125 52.815625 27.1953125 46.015625 27.1953125 C46.015625 27.8553125 46.015625 28.5153125 46.015625 29.1953125 C47.80220257 31.40901301 47.80220257 31.40901301 50.1796875 31.390625 C51.39785156 31.35582031 51.39785156 31.35582031 52.640625 31.3203125 C53.45789063 31.30226562 54.27515625 31.28421875 55.1171875 31.265625 C56.05691406 31.23082031 56.05691406 31.23082031 57.015625 31.1953125 C57.015625 30.8653125 57.015625 30.5353125 57.015625 30.1953125 C57.72589844 30.14632812 58.43617188 30.09734375 59.16796875 30.046875 C60.08707031 29.97210938 61.00617188 29.89734375 61.953125 29.8203125 C63.32791016 29.71589844 63.32791016 29.71589844 64.73046875 29.609375 C65.48457031 29.47273438 66.23867187 29.33609375 67.015625 29.1953125 C67.345625 28.5353125 67.675625 27.8753125 68.015625 27.1953125 C69.66233401 27.28457336 71.30801941 27.39272281 72.953125 27.5078125 C73.86964844 27.56582031 74.78617187 27.62382812 75.73046875 27.68359375 C79.015625 28.1953125 79.015625 28.1953125 88.015625 31.1953125 C88.015625 38.4553125 88.015625 45.7153125 88.015625 53.1953125 C56.335625 53.1953125 24.655625 53.1953125 -7.984375 53.1953125 C-8.993846 49.66216398 -10.00183583 46.12779729 -10.921875 42.5703125 C-11.93176886 39.36241435 -13.05099766 36.93426373 -14.984375 34.1953125 C-15.644375 33.8653125 -16.304375 33.5353125 -16.984375 33.1953125 C-16.984375 33.8553125 -16.984375 34.5153125 -16.984375 35.1953125 C-19.80998758 35.43078021 -21.59958169 35.38221211 -24.171875 34.1328125 C-26.68272798 31.44879724 -27.18447225 28.72821631 -27.984375 25.1953125 C-26.334375 25.1953125 -24.684375 25.1953125 -22.984375 25.1953125 C-22.984375 24.2053125 -22.984375 23.2153125 -22.984375 22.1953125 C-23.974375 21.5353125 -24.964375 20.8753125 -25.984375 20.1953125 C-26.314375 19.8653125 -26.644375 19.5353125 -26.984375 19.1953125 C-26.984375 19.8553125 -26.984375 20.5153125 -26.984375 21.1953125 C-29.294375 21.1953125 -31.604375 21.1953125 -33.984375 21.1953125 C-33.984375 21.8553125 -33.984375 22.5153125 -33.984375 23.1953125 C-36.954375 23.1953125 -39.924375 23.1953125 -42.984375 23.1953125 C-42.984375 22.2053125 -42.984375 21.2153125 -42.984375 20.1953125 C-39.024375 19.7003125 -39.024375 19.7003125 -34.984375 19.1953125 C-34.03129479 15.48888948 -34.05788936 12.90125506 -34.984375 9.1953125 C-34.984375 8.8653125 -34.984375 8.5353125 -34.984375 8.1953125 C-33.81068359 8.21271484 -33.81068359 8.21271484 -32.61328125 8.23046875 C-31.60136719 8.23949219 -30.58945313 8.24851563 -29.546875 8.2578125 C-28.03287109 8.27521484 -28.03287109 8.27521484 -26.48828125 8.29296875 C-24.04416433 8.48143926 -24.04416433 8.48143926 -22.984375 7.1953125 C-26.944375 7.1953125 -30.904375 7.1953125 -34.984375 7.1953125 C-35.314375 5.8753125 -35.644375 4.5553125 -35.984375 3.1953125 C-34.984375 2.1953125 -34.984375 2.1953125 -32.54760742 2.11352539 C-31.48904541 2.1314917 -30.4304834 2.14945801 -29.33984375 2.16796875 C-27.61217773 2.18633789 -27.61217773 2.18633789 -25.84960938 2.20507812 C-23.4094434 2.24006723 -20.96933174 2.27909075 -18.52929688 2.32226562 C-16.79583008 2.33870117 -16.79583008 2.33870117 -15.02734375 2.35546875 C-13.43442505 2.38072632 -13.43442505 2.38072632 -11.80932617 2.40649414 C-7.47624767 2.08257115 -4.51878104 -0.05510709 0 0 Z M-46.984375 5.1953125 C-43.354375 5.1953125 -39.724375 5.1953125 -35.984375 5.1953125 C-36.314375 5.8553125 -36.644375 6.5153125 -36.984375 7.1953125 C-40.284375 6.8653125 -43.584375 6.5353125 -46.984375 6.1953125 C-46.984375 5.8653125 -46.984375 5.5353125 -46.984375 5.1953125 Z " fill="#764939" transform="translate(136.984375,171.8046875)"/>
<path d="M0 0 C3.63 0 7.26 0 11 0 C11 0.33 11 0.66 11 1 C9.35 1.33 7.7 1.66 6 2 C6 3.32 6 4.64 6 6 C16.23 6 26.46 6 37 6 C37 11 37 11 36 13 C33.41682273 13.39465208 30.85811719 13.50806152 28.25 13.65625 C27.5075 13.7696875 26.765 13.883125 26 14 C25.67 14.66 25.34 15.32 25 16 C25.495 17.485 25.495 17.485 26 19 C44.81 19.495 44.81 19.495 64 20 C64 29.24 64 38.48 64 48 C61.03 47.34 58.06 46.68 55 46 C52.98176999 45.61123274 50.96129939 45.23364799 48.9375 44.875 C47.99777344 44.70742187 47.05804688 44.53984375 46.08984375 44.3671875 C45.05537109 44.18542969 45.05537109 44.18542969 44 44 C43.67 44.99 43.34 45.98 43 47 C40.36 47.33 37.72 47.66 35 48 C35 48.33 35 48.66 35 49 C33.06318839 49.08107583 31.1254066 49.13922475 29.1875 49.1875 C28.10855469 49.22230469 27.02960938 49.25710937 25.91796875 49.29296875 C23 49 23 49 21.11328125 47.48828125 C20.56220703 46.75158203 20.56220703 46.75158203 20 46 C20.66 46 21.32 46 22 46 C22 45.34 22 44.68 22 44 C27.94 43.67 33.88 43.34 40 43 C40 42.01 40 41.02 40 40 C14.26 39.67 -11.48 39.34 -38 39 C-36.68 38.01 -35.36 37.02 -34 36 C-31.62841973 33.9714169 -31.62841973 33.9714169 -31 30 C-10.21 29.67 10.58 29.34 32 29 C32 28.67 32 28.34 32 28 C11.21 27.67 -9.58 27.34 -31 27 C-31 26.67 -31 26.34 -31 26 C-19.12 25.67 -7.24 25.34 5 25 C5 24.67 5 24.34 5 24 C-5.89 23.67 -16.78 23.34 -28 23 C-28.33 22.01 -28.66 21.02 -29 20 C-23.72 20 -18.44 20 -13 20 C-13 19.34 -13 18.68 -13 18 C-15.62527189 17.94617894 -18.24944713 17.90641687 -20.875 17.875 C-21.99455078 17.84986328 -21.99455078 17.84986328 -23.13671875 17.82421875 C-25.09194461 17.8066041 -27.04742021 17.89679811 -29 18 C-29.66 18.66 -30.32 19.32 -31 20 C-33.88916016 20.22705078 -33.88916016 20.22705078 -37.5390625 20.1953125 C-39.49199219 20.18564453 -39.49199219 20.18564453 -41.484375 20.17578125 C-42.86458595 20.15906929 -44.24479429 20.14213939 -45.625 20.125 C-47.01301452 20.11497006 -48.40103589 20.10584423 -49.7890625 20.09765625 C-53.19288026 20.07401863 -56.59635506 20.04106867 -60 20 C-60 19.34 -60 18.68 -60 18 C-51.42 17.67 -42.84 17.34 -34 17 C-34.99 16.34 -35.98 15.68 -37 15 C-36.38125 14.773125 -35.7625 14.54625 -35.125 14.3125 C-32.38589791 12.62070165 -31.94975528 11.00755839 -31 8 C-33.31 8 -35.62 8 -38 8 C-38.33 8.66 -38.66 9.32 -39 10 C-40.125 7.6875 -40.125 7.6875 -41 5 C-40.34 4.01 -39.68 3.02 -39 2 C-36.0204901 1.73346054 -33.2511418 1.65232216 -30.2734375 1.70703125 C-29.41062164 1.71127609 -28.54780579 1.71552094 -27.65884399 1.71989441 C-24.89724803 1.73671608 -22.13637617 1.77437402 -19.375 1.8125 C-17.50521886 1.82754236 -15.6354263 1.84123154 -13.765625 1.85351562 C-9.17680342 1.88663094 -4.58852456 1.93843661 0 2 C0 1.34 0 0.68 0 0 Z M-74 18 C-69.71 18 -65.42 18 -61 18 C-60.67 19.32 -60.34 20.64 -60 22 C-62.12472576 22.05386629 -64.24983652 22.09273071 -66.375 22.125 C-68.15003906 22.15980469 -68.15003906 22.15980469 -69.9609375 22.1953125 C-73 22 -73 22 -75 20 C-74.67 19.34 -74.34 18.68 -74 18 Z " fill="#1C0E09" transform="translate(161,155)"/>
<path d="M0 0 C13.53 0 27.06 0 41 0 C40.67 0.99 40.34 1.98 40 3 C40.99 3.495 40.99 3.495 42 4 C42 4.66 42 5.32 42 6 C45.3 6 48.6 6 52 6 C51.34 7.32 50.68 8.64 50 10 C50 10.66 50 11.32 50 12 C49.24074219 12.04898438 48.48148437 12.09796875 47.69921875 12.1484375 C46.70535156 12.22320312 45.71148437 12.29796875 44.6875 12.375 C43.20830078 12.47941406 43.20830078 12.47941406 41.69921875 12.5859375 C38.78471567 12.83865472 38.78471567 12.83865472 36 15 C40.95 15.33 45.9 15.66 51 16 C51 16.33 51 16.66 51 17 C45.06 17.33 39.12 17.66 33 18 C33 18.33 33 18.66 33 19 C25.08 19 17.16 19 9 19 C9.495 20.485 9.495 20.485 10 22 C23.2 22 36.4 22 50 22 C50 22.66 50 23.32 50 24 C44.72 24.33 39.44 24.66 34 25 C34 26.32 34 27.64 34 29 C25.42 29 16.84 29 8 29 C8 29.66 8 30.32 8 31 C9.29417847 31.02187378 9.29417847 31.02187378 10.61450195 31.04418945 C13.81849647 31.10527754 17.02184625 31.17943549 20.2253418 31.26245117 C21.61129377 31.29568549 22.99738061 31.32372226 24.38354492 31.34643555 C26.37706843 31.38000617 28.37021741 31.43388 30.36328125 31.48828125 C31.56251221 31.51446533 32.76174316 31.54064941 33.99731445 31.56762695 C37.3335129 32.04802434 37.84000065 32.61378583 40 35 C42.00613094 35.42632292 42.00613094 35.42632292 44.1953125 35.328125 C45.39220703 35.32039063 45.39220703 35.32039063 46.61328125 35.3125 C47.44214844 35.291875 48.27101563 35.27125 49.125 35.25 C50.37990234 35.24226563 50.37990234 35.24226563 51.66015625 35.234375 C55.64903081 35.56554253 55.64903081 35.56554253 59 34 C60.90243762 33.90608704 62.80838459 33.88256342 64.71313477 33.88647461 C65.9343251 33.88655014 67.15551544 33.88662567 68.41371155 33.88670349 C69.75627686 33.89181089 71.09884175 33.89702689 72.44140625 33.90234375 C73.80761158 33.90420801 75.17381757 33.90563187 76.5400238 33.90663147 C80.14201695 33.91045606 83.74397 33.92028583 87.34594727 33.93133545 C91.01903745 33.94155084 94.69213409 33.94612936 98.36523438 33.95117188 C105.57684123 33.96190816 112.788415 33.97898386 120 34 C120 35.65 120 37.3 120 39 C69.51 39 19.02 39 -33 39 C-33 38.67 -33 38.34 -33 38 C-38.94 37.67 -44.88 37.34 -51 37 C-51 36.67 -51 36.34 -51 36 C-46.05 35.67 -41.1 35.34 -36 35 C-36 34.67 -36 34.34 -36 34 C-40.95 33.67 -45.9 33.34 -51 33 C-50.67 32.01 -50.34 31.02 -50 30 C-44.72 29.67 -39.44 29.34 -34 29 C-34 28.01 -34 27.02 -34 26 C-29.05 26 -24.1 26 -19 26 C-19 25.34 -19 24.68 -19 24 C-23.62 24 -28.24 24 -33 24 C-33.495 21.525 -33.495 21.525 -34 19 C-29.05 19 -24.1 19 -19 19 C-19 18.34 -19 17.68 -19 17 C-18.24074219 16.95101562 -17.48148438 16.90203125 -16.69921875 16.8515625 C-15.70535156 16.77679688 -14.71148437 16.70203125 -13.6875 16.625 C-12.70136719 16.55539063 -11.71523437 16.48578125 -10.69921875 16.4140625 C-7.78471567 16.16134528 -7.78471567 16.16134528 -5 14 C-5.85464844 13.87882812 -6.70929688 13.75765625 -7.58984375 13.6328125 C-8.69457031 13.46523438 -9.79929688 13.29765625 -10.9375 13.125 C-12.59072266 12.88136719 -12.59072266 12.88136719 -14.27734375 12.6328125 C-15.17582031 12.42398438 -16.07429688 12.21515625 -17 12 C-17.495 11.01 -17.495 11.01 -18 10 C-14.37 10 -10.74 10 -7 10 C-7 10.66 -7 11.32 -7 12 C-6.34 11.67 -5.68 11.34 -5 11 C-5 10.01 -5 9.02 -5 8 C-5.99 7.67 -6.98 7.34 -8 7 C-8 7.66 -8 8.32 -8 9 C-10.97 9 -13.94 9 -17 9 C-16.34 8.67 -15.68 8.34 -15 8 C-15 7.34 -15 6.68 -15 6 C-7.575 4.515 -7.575 4.515 0 3 C0 2.01 0 1.02 0 0 Z " fill="#9D8688" transform="translate(105,26)"/>
<path d="M0 0 C20.79 0 41.58 0 63 0 C63 8.91 63 17.82 63 27 C58.60816406 27.06058594 54.21632813 27.12117188 49.69140625 27.18359375 C46.19871886 27.23452937 42.70604923 27.28645094 39.21338654 27.33904266 C35.52143851 27.39436334 31.82948377 27.44792954 28.13745117 27.49731445 C24.58422159 27.54490932 21.03109125 27.59725007 17.47797966 27.65294075 C16.11957189 27.6733865 14.76113688 27.69209585 13.40268135 27.70907402 C11.50610295 27.73306877 9.60961201 27.76370332 7.71313477 27.79467773 C6.09097801 27.81799416 6.09097801 27.81799416 4.43605042 27.84178162 C2.05248949 27.72758019 2.05248949 27.72758019 1 29 C-0.65738443 29.09346915 -2.31874644 29.11744977 -3.97875977 29.11352539 C-5.03978409 29.11344986 -6.10080841 29.11337433 -7.19398499 29.11329651 C-8.92520851 29.10555458 -8.92520851 29.10555458 -10.69140625 29.09765625 C-11.86638168 29.0962413 -13.04135712 29.09482635 -14.25193787 29.09336853 C-18.02215064 29.08774992 -21.79230504 29.07519426 -25.5625 29.0625 C-28.11132727 29.0574874 -30.66015547 29.05292408 -33.20898438 29.04882812 C-39.47267633 29.03777444 -45.73633399 29.02101821 -52 29 C-52 28.67 -52 28.34 -52 28 C-29.23 27.505 -29.23 27.505 -6 27 C-4.30794008 21.92382023 -3 17.35565465 -3 12 C-2.34 12 -1.68 12 -1 12 C-1.01160156 11.30132812 -1.02320313 10.60265625 -1.03515625 9.8828125 C-1.04417969 8.97273438 -1.05320313 8.06265625 -1.0625 7.125 C-1.07410156 6.22007813 -1.08570313 5.31515625 -1.09765625 4.3828125 C-1 2 -1 2 0 0 Z " fill="#712A11" transform="translate(162,33)"/>
<path d="M0 0 C1.40185547 0.00966797 1.40185547 0.00966797 2.83203125 0.01953125 C4.28416016 0.04466797 4.28416016 0.04466797 5.765625 0.0703125 C6.74917969 0.07933594 7.73273438 0.08835938 8.74609375 0.09765625 C11.16951907 0.12118465 13.59244722 0.15405882 16.015625 0.1953125 C16.015625 0.5253125 16.015625 0.8553125 16.015625 1.1953125 C14.365625 1.1953125 12.715625 1.1953125 11.015625 1.1953125 C11.015625 1.8553125 11.015625 2.5153125 11.015625 3.1953125 C13.655625 3.5253125 16.295625 3.8553125 19.015625 4.1953125 C19.015625 4.5253125 19.015625 4.8553125 19.015625 5.1953125 C22.645625 5.5253125 26.275625 5.8553125 30.015625 6.1953125 C30.015625 6.5253125 30.015625 6.8553125 30.015625 7.1953125 C32.985625 7.5253125 35.955625 7.8553125 39.015625 8.1953125 C39.015625 8.5253125 39.015625 8.8553125 39.015625 9.1953125 C44.955625 9.5253125 50.895625 9.8553125 57.015625 10.1953125 C57.015625 10.5253125 57.015625 10.8553125 57.015625 11.1953125 C57.94375 11.2984375 58.871875 11.4015625 59.828125 11.5078125 C63.015625 12.1953125 63.015625 12.1953125 64.890625 13.2578125 C66.71334109 16.39693466 66.08065813 19.60765152 66.015625 23.1953125 C65.04509689 23.2107737 65.04509689 23.2107737 64.05496216 23.22654724 C57.33943278 23.33447 50.62404146 23.4490793 43.90869141 23.56762695 C41.40025716 23.61102153 38.89179251 23.6526932 36.38330078 23.69262695 C32.78408632 23.75022007 29.18502558 23.81394593 25.5859375 23.87890625 C23.89526657 23.90397499 23.89526657 23.90397499 22.17044067 23.92955017 C21.12951263 23.94949539 20.08858459 23.96944061 19.01611328 23.98999023 C18.09678009 24.00553452 17.1774469 24.0210788 16.23025513 24.03709412 C13.97487346 24.0563803 13.97487346 24.0563803 12.015625 25.1953125 C12.510625 26.1853125 12.510625 26.1853125 13.015625 27.1953125 C2.455625 27.1953125 -8.104375 27.1953125 -18.984375 27.1953125 C-17.87089904 28.53528182 -17.87089904 28.53528182 -15.02514648 28.30883789 C-13.08490601 28.30098267 -13.08490601 28.30098267 -11.10546875 28.29296875 C-10.4188063 28.2915538 -9.73214386 28.29013885 -9.02467346 28.28868103 C-6.82369699 28.28306729 -4.62282091 28.27051257 -2.421875 28.2578125 C-0.93294417 28.25279926 0.55598824 28.24823605 2.04492188 28.24414062 C5.70185575 28.23309343 9.35873058 28.21581963 13.015625 28.1953125 C13.015625 29.8453125 13.015625 31.4953125 13.015625 33.1953125 C3.115625 33.1953125 -6.784375 33.1953125 -16.984375 33.1953125 C-16.984375 33.8553125 -16.984375 34.5153125 -16.984375 35.1953125 C-19.80998758 35.43078021 -21.59958169 35.38221211 -24.171875 34.1328125 C-26.68272798 31.44879724 -27.18447225 28.72821631 -27.984375 25.1953125 C-26.334375 25.1953125 -24.684375 25.1953125 -22.984375 25.1953125 C-22.984375 24.2053125 -22.984375 23.2153125 -22.984375 22.1953125 C-23.974375 21.5353125 -24.964375 20.8753125 -25.984375 20.1953125 C-26.314375 19.8653125 -26.644375 19.5353125 -26.984375 19.1953125 C-26.984375 19.8553125 -26.984375 20.5153125 -26.984375 21.1953125 C-29.294375 21.1953125 -31.604375 21.1953125 -33.984375 21.1953125 C-33.984375 21.8553125 -33.984375 22.5153125 -33.984375 23.1953125 C-36.954375 23.1953125 -39.924375 23.1953125 -42.984375 23.1953125 C-42.984375 22.2053125 -42.984375 21.2153125 -42.984375 20.1953125 C-39.024375 19.7003125 -39.024375 19.7003125 -34.984375 19.1953125 C-34.03129479 15.48888948 -34.05788936 12.90125506 -34.984375 9.1953125 C-34.984375 8.8653125 -34.984375 8.5353125 -34.984375 8.1953125 C-33.81068359 8.21271484 -33.81068359 8.21271484 -32.61328125 8.23046875 C-31.60136719 8.23949219 -30.58945313 8.24851563 -29.546875 8.2578125 C-28.03287109 8.27521484 -28.03287109 8.27521484 -26.48828125 8.29296875 C-24.04416433 8.48143926 -24.04416433 8.48143926 -22.984375 7.1953125 C-26.944375 7.1953125 -30.904375 7.1953125 -34.984375 7.1953125 C-35.314375 5.8753125 -35.644375 4.5553125 -35.984375 3.1953125 C-34.984375 2.1953125 -34.984375 2.1953125 -32.54760742 2.11352539 C-31.48904541 2.1314917 -30.4304834 2.14945801 -29.33984375 2.16796875 C-27.61217773 2.18633789 -27.61217773 2.18633789 -25.84960938 2.20507812 C-23.4094434 2.24006723 -20.96933174 2.27909075 -18.52929688 2.32226562 C-16.79583008 2.33870117 -16.79583008 2.33870117 -15.02734375 2.35546875 C-13.43442505 2.38072632 -13.43442505 2.38072632 -11.80932617 2.40649414 C-7.47624767 2.08257115 -4.51878104 -0.05510709 0 0 Z M-46.984375 5.1953125 C-43.354375 5.1953125 -39.724375 5.1953125 -35.984375 5.1953125 C-36.314375 5.8553125 -36.644375 6.5153125 -36.984375 7.1953125 C-40.284375 6.8653125 -43.584375 6.5353125 -46.984375 6.1953125 C-46.984375 5.8653125 -46.984375 5.5353125 -46.984375 5.1953125 Z " fill="#898989" transform="translate(136.984375,171.8046875)"/>
<path d="M0 0 C28.71 0 57.42 0 87 0 C87 0.33 87 0.66 87 1 C82.05 1 77.1 1 72 1 C72 1.66 72 2.32 72 3 C78.93 3.495 78.93 3.495 86 4 C85.67 4.99 85.34 5.98 85 7 C81.37 7 77.74 7 74 7 C74 7.66 74 8.32 74 9 C72.02 9 70.04 9 68 9 C68 9.66 68 10.32 68 11 C66.41058594 11.09087891 66.41058594 11.09087891 64.7890625 11.18359375 C63.40102779 11.26800127 62.01300768 11.35264917 60.625 11.4375 C59.92632812 11.47681641 59.22765625 11.51613281 58.5078125 11.55664062 C54.62639508 11.74280134 54.62639508 11.74280134 51 13 C51 13.66 51 14.32 51 15 C66.48980974 15.89018901 66.48980974 15.89018901 82 16 C81.34 17.65 80.68 19.3 80 21 C76.37 21 72.74 21 69 21 C69 20.67 69 20.34 69 20 C66.69 19.67 64.38 19.34 62 19 C62 19.66 62 20.32 62 21 C59.03 21 56.06 21 53 21 C53 21.66 53 22.32 53 23 C61.25 23.33 69.5 23.66 78 24 C77.505 25.485 77.505 25.485 77 27 C69.9526691 27.12671128 62.90563155 27.21431394 55.85742188 27.2746582 C53.45952375 27.29981212 51.06170236 27.33393919 48.6640625 27.37719727 C45.21855751 27.43780735 41.77406554 27.46620156 38.328125 27.48828125 C37.25508118 27.51408768 36.18203735 27.5398941 35.07647705 27.56648254 C27.61085336 27.5692999 27.61085336 27.5692999 24.44824219 24.62182617 C23.97032227 23.75662354 23.49240234 22.8914209 23 22 C21.7625 20.7934375 21.7625 20.7934375 20.5 19.5625 C15.83611439 14.78201725 13.65691824 10.19947589 11 4 C22.88 4 34.76 4 47 4 C47 4.99 47 5.98 47 7 C48.48693359 6.75443359 48.48693359 6.75443359 50.00390625 6.50390625 C53.99354579 5.93395774 57.90621941 5.90182495 61.9375 5.9375 C62.96327148 5.94426758 62.96327148 5.94426758 64.00976562 5.95117188 C65.67321604 5.9628044 67.3366205 5.98073306 69 6 C65.04 5.67 61.08 5.34 57 5 C57 4.67 57 4.34 57 4 C57.95712891 3.92652344 57.95712891 3.92652344 58.93359375 3.8515625 C59.75988281 3.77679688 60.58617187 3.70203125 61.4375 3.625 C62.26121094 3.55539063 63.08492187 3.48578125 63.93359375 3.4140625 C64.61550781 3.27742188 65.29742187 3.14078125 66 3 C66.33 2.34 66.66 1.68 67 1 C44.89 1 22.78 1 0 1 C0 0.67 0 0.34 0 0 Z " fill="#C3B29F" transform="translate(68,92)"/>
<path d="M0 0 C1.4430152 0.0243571 2.88603921 0.04819764 4.32907104 0.07154846 C8.09377207 0.13383432 11.8583136 0.20305242 15.62286377 0.27380371 C19.47766978 0.34499447 23.33258723 0.40950579 27.1875 0.47460938 C34.72668592 0.60290424 42.2657157 0.73853597 49.8046875 0.87890625 C49.8046875 1.86890625 49.8046875 2.85890625 49.8046875 3.87890625 C48.8146875 4.53890625 47.8246875 5.19890625 46.8046875 5.87890625 C43.98442727 9.0309618 42.85015411 10.69703982 41.8046875 14.87890625 C47.4146875 14.87890625 53.0246875 14.87890625 58.8046875 14.87890625 C58.8046875 15.86890625 58.8046875 16.85890625 58.8046875 17.87890625 C42.9646875 17.87890625 27.1246875 17.87890625 10.8046875 17.87890625 C10.8046875 17.54890625 10.8046875 17.21890625 10.8046875 16.87890625 C-1.7353125 16.54890625 -14.2753125 16.21890625 -27.1953125 15.87890625 C-27.1953125 10.05024947 -26.97856354 6.22865936 -25.1953125 0.87890625 C-16.78398478 -0.25567201 -8.46932338 -0.16786358 0 0 Z " fill="#25211E" transform="translate(99.1953125,0.12109375)"/>
<path d="M0 0 C13.53 0 27.06 0 41 0 C40.67 0.99 40.34 1.98 40 3 C40.66 3.33 41.32 3.66 42 4 C42 4.66 42 5.32 42 6 C45.3 6 48.6 6 52 6 C51.34 7.32 50.68 8.64 50 10 C50 10.66 50 11.32 50 12 C49.24074219 12.04898438 48.48148437 12.09796875 47.69921875 12.1484375 C46.70535156 12.22320312 45.71148437 12.29796875 44.6875 12.375 C43.20830078 12.47941406 43.20830078 12.47941406 41.69921875 12.5859375 C38.78471567 12.83865472 38.78471567 12.83865472 36 15 C40.95 15.33 45.9 15.66 51 16 C51 16.33 51 16.66 51 17 C45.06 17.33 39.12 17.66 33 18 C33 18.33 33 18.66 33 19 C20.625 19.495 20.625 19.495 8 20 C8 19.34 8 18.68 8 18 C7.34 17.67 6.68 17.34 6 17 C5.67 16.67 5.34 16.34 5 16 C2.51777659 15.71515469 0.03531145 15.55193447 -2.45703125 15.37890625 C-5.05576956 14.99169025 -6.6868031 14.18924437 -9 13 C-11.09434213 12.62678783 -11.09434213 12.62678783 -13.1875 12.5 C-14.445625 12.335 -15.70375 12.17 -17 12 C-17.33 11.34 -17.66 10.68 -18 10 C-14.37 10 -10.74 10 -7 10 C-7 10.66 -7 11.32 -7 12 C-6.34 11.67 -5.68 11.34 -5 11 C-5 10.01 -5 9.02 -5 8 C-5.99 7.67 -6.98 7.34 -8 7 C-8 7.66 -8 8.32 -8 9 C-10.97 9 -13.94 9 -17 9 C-16.34 8.67 -15.68 8.34 -15 8 C-15 7.34 -15 6.68 -15 6 C-7.575 4.515 -7.575 4.515 0 3 C0 2.01 0 1.02 0 0 Z " fill="#7B6B65" transform="translate(105,26)"/>
<path d="M0 0 C35.31 0 70.62 0 107 0 C107 4 107 4 105.0625 6.0625 C104.381875 6.701875 103.70125 7.34125 103 8 C102.67 8.99 102.34 9.98 102 11 C88.635 11.495 88.635 11.495 75 12 C75 12.33 75 12.66 75 13 C67.60290309 13.17687866 60.20564686 13.34283967 52.80799294 13.49477577 C49.37314896 13.56566714 45.9384739 13.64035018 42.50390625 13.72363281 C38.55750086 13.81916177 34.61085002 13.89831757 30.6640625 13.9765625 C29.42757965 14.00875885 28.1910968 14.0409552 26.91714478 14.0741272 C25.77611298 14.09429901 24.63508118 14.11447083 23.45947266 14.13525391 C22.451315 14.15746002 21.44315735 14.17966614 20.40444946 14.20254517 C18 14 18 14 16 12 C16 11.34 16 10.68 16 10 C10.06 9.67 4.12 9.34 -2 9 C-2 8.67 -2 8.34 -2 8 C6.415 7.505 6.415 7.505 15 7 C15 6.34 15 5.68 15 5 C14.34773438 5.08378906 13.69546875 5.16757813 13.0234375 5.25390625 C8.11750856 5.82554104 3.86872815 6.15311982 -1 5 C-0.67 3.35 -0.34 1.7 0 0 Z M11 10 C13 11 13 11 13 11 Z " fill="#292520" transform="translate(55,63)"/>
<path d="M0 0 C27.39 0 54.78 0 83 0 C83 0.33 83 0.66 83 1 C82.21625 1.12375 81.4325 1.2475 80.625 1.375 C77.85942178 1.79117993 77.85942178 1.79117993 76 4 C76.495 4.99 76.495 4.99 77 6 C62.81 5.67 48.62 5.34 34 5 C34 5.99 34 6.98 34 8 C32.25183142 8.50636607 30.50137737 9.00484619 28.75 9.5 C27.77546875 9.7784375 26.8009375 10.056875 25.796875 10.34375 C23 11 23 11 19 11 C19 11.66 19 12.32 19 13 C21.31 13.33 23.62 13.66 26 14 C26 13.34 26 12.68 26 12 C27.65 12 29.3 12 31 12 C30.01 12.495 30.01 12.495 29 13 C29 13.99 29 14.98 29 16 C30.98 16 32.96 16 35 16 C35 16.33 35 16.66 35 17 C32.36 17 29.72 17 27 17 C27 16.34 27 15.68 27 15 C23.7 15.33 20.4 15.66 17 16 C27.395 16.99 27.395 16.99 38 18 C38.495 19.485 38.495 19.485 39 21 C25.98257939 22.21618838 13.08304907 23.37739565 0 23 C-0.0703125 16.3125 -0.0703125 16.3125 0.5625 13.5 C1.14482524 10.17242722 0.54283468 7.31732306 0 4 C0 2.68 0 1.36 0 0 Z " fill="#120D12" transform="translate(71,21)"/>
<path d="M0 0 C1.65 0 3.3 0 5 0 C5 0.99 5 1.98 5 3 C8.4805507 3.69571879 8.4805507 3.69571879 12 4 C22 4 32 4 42 4 C42.44666016 5.19109375 42.44666016 5.19109375 42.90234375 6.40625 C43.80206529 9.00736989 43.80206529 9.00736989 45.5625 10.5 C47.48178557 12.50273277 47.46369313 14.31846566 48 17 C49.45833358 18.62514468 49.45833358 18.62514468 51 20 C51.495 21.485 51.495 21.485 52 23 C15.53573348 24.40027356 15.53573348 24.40027356 -2 23 C-2.22236328 21.34097656 -2.22236328 21.34097656 -2.44921875 19.6484375 C-2.95309864 16.31067993 -3.6229099 14.04409391 -5 11 C-5.70842183 9.39587241 -6.41674826 7.79170269 -7.125 6.1875 C-7.74909369 4.79126121 -8.37379084 3.39529129 -9 2 C-6.03 2 -3.06 2 0 2 C0 1.34 0 0.68 0 0 Z " fill="#030101" transform="translate(108,201)"/>
<path d="M0 0 C20.79 0 41.58 0 63 0 C63 2.64 63 5.28 63 8 C42.21 8 21.42 8 0 8 C-1 3 -1 3 0 0 Z " fill="#8A3315" transform="translate(162,33)"/>
<path d="M0 0 C20.46 0 40.92 0 62 0 C62 2.31 62 4.62 62 7 C60.85701195 7.0154612 60.85701195 7.0154612 59.69093323 7.03123474 C52.5244026 7.1290441 45.35796173 7.2315344 38.19157505 7.33933926 C34.5068981 7.39460165 30.82221327 7.44802679 27.13745117 7.49731445 C23.58422159 7.54490932 20.03109125 7.59725007 16.47797966 7.65294075 C15.11957189 7.6733865 13.76113688 7.69209585 12.40268135 7.70907402 C10.50610295 7.73306877 8.60961201 7.76370332 6.71313477 7.79467773 C5.09097801 7.81799416 5.09097801 7.81799416 3.43605042 7.84178162 C1.05248949 7.72758019 1.05248949 7.72758019 0 9 C-1.65738443 9.09346915 -3.31874644 9.11744977 -4.97875977 9.11352539 C-6.03978409 9.11344986 -7.10080841 9.11337433 -8.19398499 9.11329651 C-9.92520851 9.10555458 -9.92520851 9.10555458 -11.69140625 9.09765625 C-12.86638168 9.0962413 -14.04135712 9.09482635 -15.25193787 9.09336853 C-19.02215064 9.08774992 -22.79230504 9.07519426 -26.5625 9.0625 C-29.11132727 9.0574874 -31.66015547 9.05292408 -34.20898438 9.04882812 C-40.47267633 9.03777444 -46.73633399 9.02101821 -53 9 C-53 8.67 -53 8.34 -53 8 C-30.23 7.505 -30.23 7.505 -7 7 C-6.34 5.35 -5.68 3.7 -5 2 C-3.35 2 -1.7 2 0 2 C0 1.34 0 0.68 0 0 Z " fill="#5E230F" transform="translate(163,53)"/>
<path d="M0 0 C27.39 0 54.78 0 83 0 C83 1.65 83 3.3 83 5 C55.28 5 27.56 5 -1 5 C-0.67 3.35 -0.34 1.7 0 0 Z M-4 5 C24.71 5.33 53.42 5.66 83 6 C83 6.33 83 6.66 83 7 C54.29 7 25.58 7 -4 7 C-4 6.34 -4 5.68 -4 5 Z M-6 7 C-5.34 7 -4.68 7 -4 7 C-4 7.66 -4 8.32 -4 9 C-4.99 8.67 -5.98 8.34 -7 8 C-6.67 7.67 -6.34 7.34 -6 7 Z " fill="#C3AF9B" transform="translate(74,74)"/>
<path d="M0 0 C22.77 0 45.54 0 69 0 C68.34 0.33 67.68 0.66 67 1 C65.22000265 5.60705196 64 10.05309537 64 15 C57.73 15 51.46 15 45 15 C45 14.34 45 13.68 45 13 C34.77 13 24.54 13 14 13 C13.67 12.01 13.34 11.02 13 10 C12.34 9.34 11.68 8.68 11 8 C12.11560303 7.97494385 13.23120605 7.9498877 14.38061523 7.92407227 C18.5049259 7.83016579 22.6290615 7.72990486 26.75317383 7.62768555 C28.5408927 7.584273 30.32865474 7.54260271 32.11645508 7.50268555 C34.68063391 7.4451354 37.24459412 7.38139797 39.80859375 7.31640625 C40.6127623 7.29969376 41.41693085 7.28298126 42.24546814 7.26576233 C45.92669998 7.50779304 45.92669998 7.50779304 49 6 C47.74864258 5.98541748 46.49728516 5.97083496 45.20800781 5.95581055 C40.56351197 5.89782073 35.91950061 5.8205877 31.27539062 5.73754883 C29.26570501 5.70430274 27.25592609 5.67626981 25.24609375 5.65356445 C22.35636653 5.62001278 19.46749407 5.56769663 16.578125 5.51171875 C15.23104462 5.50213387 15.23104462 5.50213387 13.85675049 5.49235535 C6.30590867 5.31454427 6.30590867 5.31454427 3 2 C2.01 1.34 1.02 0.68 0 0 Z " fill="#D4BFA9" transform="translate(96,0)"/>
<path d="M0 0 C1.07699661 0.00666183 2.15399323 0.01332367 3.2636261 0.02018738 C4.48466537 0.02041397 5.70570465 0.02064056 6.96374512 0.02087402 C8.94197014 0.04409981 8.94197014 0.04409981 10.9601593 0.0677948 C12.32350193 0.07339112 13.6868506 0.07766105 15.05020142 0.08065796 C18.63587648 0.09210406 22.22118609 0.12156869 25.80671692 0.1547699 C29.46653805 0.18547616 33.12641832 0.19916445 36.78633118 0.21427917 C43.96553411 0.24643906 51.1444361 0.29763202 58.32344055 0.36076355 C58.32344055 2.01076355 58.32344055 3.66076355 58.32344055 5.36076355 C7.83344055 5.36076355 -42.65655945 5.36076355 -94.67655945 5.36076355 C-94.67655945 5.03076355 -94.67655945 4.70076355 -94.67655945 4.36076355 C-93.01405403 4.35196419 -93.01405403 4.35196419 -91.31796265 4.34298706 C-80.88500684 4.28583294 -70.45226093 4.21310985 -60.01951885 4.12504864 C-54.65562116 4.08027575 -49.29180064 4.04103496 -43.92778015 4.014328 C-38.75349052 3.98836397 -33.57949677 3.94801079 -28.40538979 3.89757729 C-26.42902614 3.88086176 -24.45261127 3.86937676 -22.47618675 3.86314964 C-19.71282632 3.85355937 -16.95023095 3.82556159 -14.1870575 3.7931366 C-13.36562759 3.79457169 -12.54419769 3.79600677 -11.69787598 3.79748535 C-7.5262528 3.89765702 -7.5262528 3.89765702 -4.11012268 1.85839081 C-2.67655945 0.36076355 -2.67655945 0.36076355 0 0 Z " fill="#A45B3D" transform="translate(166.6765594482422,59.63923645019531)"/>
<path d="M0 0 C8.91 0 17.82 0 27 0 C25.68 1.32 24.36 2.64 23 4 C23 4.33 23 4.66 23 5 C24.03640625 5.03738281 25.0728125 5.07476563 26.140625 5.11328125 C27.51045184 5.17895788 28.88024191 5.24540464 30.25 5.3125 C30.93191406 5.33505859 31.61382812 5.35761719 32.31640625 5.38085938 C36.50588541 5.60456943 38.90924257 6.14644024 42 9 C42.86625 9.495 43.7325 9.99 44.625 10.5 C47 12 47 12 49 15 C51.56282742 15.72965366 51.56282742 15.72965366 54 16 C54 16.33 54 16.66 54 17 C40.14 17 26.28 17 12 17 C12 17.66 12 18.32 12 19 C8.7 19 5.4 19 2 19 C1.36938096 15.21628577 0.94239018 11.65075439 1 7.8125 C1.15411118 3.92926044 1.15411118 3.92926044 0 0 Z " fill="#D08692" transform="translate(57,0)"/>
<path d="M0 0 C7.11484687 0.3856646 13.35441866 1.39099399 20 4 C20 5.65 20 7.3 20 9 C-2.77 9 -25.54 9 -49 9 C-49.33 7.68 -49.66 6.36 -50 5 C-37.13 4.67 -24.26 4.34 -11 4 C-11 3.67 -11 3.34 -11 3 C-10.28972656 2.95101562 -9.57945312 2.90203125 -8.84765625 2.8515625 C-7.92855469 2.77679688 -7.00945312 2.70203125 -6.0625 2.625 C-5.14597656 2.55539063 -4.22945312 2.48578125 -3.28515625 2.4140625 C-2.53105469 2.27742187 -1.77695313 2.14078125 -1 2 C-0.67 1.34 -0.34 0.68 0 0 Z " fill="#602612" transform="translate(205,199)"/>
<path d="M0 0 C3.05075084 -0.266487 5.89626179 -0.34757146 8.9453125 -0.29296875 C9.8303244 -0.28872391 10.7153363 -0.28447906 11.62716675 -0.28010559 C14.46008445 -0.26328259 17.29229652 -0.22562425 20.125 -0.1875 C22.04295849 -0.17245782 23.96092811 -0.15876861 25.87890625 -0.14648438 C30.58621031 -0.11336727 35.29298544 -0.06156055 40 0 C39.34 1.65 38.68 3.3 38 5 C34.37 5 30.74 5 27 5 C27 4.67 27 4.34 27 4 C24.69 3.67 22.38 3.34 20 3 C20 3.66 20 4.32 20 5 C17.03 5 14.06 5 11 5 C11 5.66 11 6.32 11 7 C19.25 7.33 27.5 7.66 36 8 C35.67 8.99 35.34 9.98 35 11 C27.9526691 11.12671128 20.90563155 11.21431394 13.85742188 11.2746582 C11.45952375 11.29981212 9.06170236 11.33393919 6.6640625 11.37719727 C3.21855751 11.43780735 -0.22593446 11.46620156 -3.671875 11.48828125 C-4.74491882 11.51408768 -5.81796265 11.5398941 -6.92352295 11.56648254 C-14.3886947 11.56929973 -14.3886947 11.56929973 -17.58300781 8.59448242 C-18.05061523 7.73830322 -18.51822266 6.88212402 -19 6 C-19.66 5.34 -20.32 4.68 -21 4 C-20.43490723 3.98541748 -19.86981445 3.97083496 -19.28759766 3.95581055 C-16.73269981 3.88143942 -14.17912502 3.78474758 -11.625 3.6875 C-10.73554687 3.66494141 -9.84609375 3.64238281 -8.9296875 3.61914062 C-8.07890625 3.58369141 -7.228125 3.54824219 -6.3515625 3.51171875 C-5.17327881 3.47244263 -5.17327881 3.47244263 -3.97119141 3.43237305 C-1.59959844 3.15110403 -1.59959844 3.15110403 0 0 Z " fill="#A19384" transform="translate(110,108)"/>
<path d="M0 0 C1.4430152 0.0243571 2.88603921 0.04819764 4.32907104 0.07154846 C8.09377207 0.13383432 11.8583136 0.20305242 15.62286377 0.27380371 C19.47766978 0.34499447 23.33258723 0.40950579 27.1875 0.47460938 C34.72668592 0.60290424 42.2657157 0.73853597 49.8046875 0.87890625 C49.8046875 1.86890625 49.8046875 2.85890625 49.8046875 3.87890625 C44.96719891 7.10389864 41.43892023 7.02485717 35.74609375 7.01171875 C34.39595436 7.01315384 34.39595436 7.01315384 33.01853943 7.01461792 C31.11286347 7.01529911 29.20718519 7.01344906 27.30151367 7.00927734 C24.38259669 7.00393446 21.46383401 7.00922118 18.54492188 7.015625 C16.69531216 7.01496409 14.84570254 7.01368265 12.99609375 7.01171875 C12.12102676 7.01374298 11.24595978 7.01576721 10.34437561 7.01785278 C9.53020676 7.01470062 8.7160379 7.01154846 7.87719727 7.00830078 C7.16153091 7.00750519 6.44586456 7.00670959 5.70851135 7.00588989 C3.8046875 6.87890625 3.8046875 6.87890625 0.8046875 5.87890625 C0.4746875 6.86890625 0.1446875 7.85890625 -0.1953125 8.87890625 C-13.0653125 8.38390625 -13.0653125 8.38390625 -26.1953125 7.87890625 C-26.1953125 2.87890625 -26.1953125 2.87890625 -25.1953125 0.87890625 C-17.12614622 -1.04890372 -8.22283041 -0.16297804 0 0 Z M42.8046875 6.87890625 C44.8046875 7.87890625 44.8046875 7.87890625 44.8046875 7.87890625 Z " fill="#040404" transform="translate(99.1953125,0.12109375)"/>
<path d="M0 0 C3 1 3 1 5 2 C5 1.34 5 0.68 5 0 C33.05 0 61.1 0 90 0 C90 1.65 90 3.3 90 5 C60.63 5 31.26 5 1 5 C0.67 3.35 0.34 1.7 0 0 Z " fill="#030202" transform="translate(65,81)"/>
<path d="M0 0 C0.33 0.99 0.66 1.98 1 3 C-4.94 3 -10.88 3 -17 3 C-17.33 2.34 -17.66 1.68 -18 1 C-11.93303301 0.22959149 -6.11485027 -0.09706112 0 0 Z M-18 3 C-11.4 3.33 -4.8 3.66 2 4 C2 4.99 2 5.98 2 7 C1.01 7 0.02 7 -1 7 C-1 7.66 -1 8.32 -1 9 C-1.78117187 8.76990234 -1.78117187 8.76990234 -2.578125 8.53515625 C-5.63278515 7.86017489 -8.63015971 7.65588882 -11.75 7.4375 C-12.92046875 7.35371094 -14.0909375 7.26992187 -15.296875 7.18359375 C-16.18890625 7.12300781 -17.0809375 7.06242187 -18 7 C-18 5.68 -18 4.36 -18 3 Z M-20 7 C-19.01 7.33 -18.02 7.66 -17 8 C-17.99 8.33 -18.98 8.66 -20 9 C-20 8.34 -20 7.68 -20 7 Z M-70 9 C-53.5 9 -37 9 -20 9 C-19.505 9.99 -19.505 9.99 -19 11 C-35.83 11 -52.66 11 -70 11 C-70 10.34 -70 9.68 -70 9 Z " fill="#743D27" transform="translate(70,68)"/>
<path d="M0 0 C3.63 0 7.26 0 11 0 C11 0.33 11 0.66 11 1 C9.35 1.33 7.7 1.66 6 2 C6 3.32 6 4.64 6 6 C16.23 6 26.46 6 37 6 C37 6.99 37 7.98 37 9 C21.16 9 5.32 9 -11 9 C-10.67 8.01 -10.34 7.02 -10 6 C-9.01 6 -8.02 6 -7 6 C-7 5.34 -7 4.68 -7 4 C-17.56 4 -28.12 4 -39 4 C-39 3.34 -39 2.68 -39 2 C-26.13 2 -13.26 2 0 2 C0 1.34 0 0.68 0 0 Z " fill="#010000" transform="translate(161,155)"/>
<path d="M0 0 C20.46 0 40.92 0 62 0 C62 0.99 62 1.98 62 3 C54.00266504 3.15405485 46.00525179 3.30223392 38.00767231 3.4429636 C34.2938727 3.50849718 30.58013235 3.57603549 26.86645508 3.64819336 C23.28093435 3.7177867 19.69535373 3.78206427 16.10967064 3.84269524 C14.74334455 3.86672569 13.37705046 3.89265439 12.0107975 3.92053413 C10.09363848 3.95932774 8.17633326 3.99067821 6.2590332 4.02172852 C5.16871292 4.04171402 4.07839264 4.06169952 2.95503235 4.08229065 C0.17570973 4.0048931 -2.2998955 3.63845731 -5 3 C-5 2.67 -5 2.34 -5 2 C-3.35 2 -1.7 2 0 2 C0 1.34 0 0.68 0 0 Z M-6 4 C-4.02 4 -2.04 4 0 4 C0 4.33 0 4.66 0 5 C-1.98 5 -3.96 5 -6 5 C-6 4.67 -6 4.34 -6 4 Z " fill="#491B0B" transform="translate(163,53)"/>
<path d="M0 0 C0.33 0.99 0.66 1.98 1 3 C-2.3 3 -5.6 3 -9 3 C-9.33 2.34 -9.66 1.68 -10 1 C-6.52674819 -0.1577506 -3.63932552 -0.06866652 0 0 Z M-10 3 C-9.34 3.66 -8.68 4.32 -8 5 C-8.33 6.32 -8.66 7.64 -9 9 C-26.82 9 -44.64 9 -63 9 C-63 8.01 -63 7.02 -63 6 C-45.84 5.67 -28.68 5.34 -11 5 C-10.67 4.34 -10.34 3.68 -10 3 Z " fill="#A03C18" transform="translate(63,76)"/>
<path d="M0 0 C20.79 0 41.58 0 63 0 C63 0.99 63 1.98 63 3 C42.21 3.33 21.42 3.66 0 4 C-0.33 3.34 -0.66 2.68 -1 2 C-0.67 1.34 -0.34 0.68 0 0 Z " fill="#4B1C0B" transform="translate(162,33)"/>
<path d="M0 0 C5.94 0 11.88 0 18 0 C18.33 0.99 18.66 1.98 19 3 C19.639375 3.309375 20.27875 3.61875 20.9375 3.9375 C23 5 23 5 25 9 C20.545 9.495 20.545 9.495 16 10 C16 10.33 16 10.66 16 11 C19.3 11.33 22.6 11.66 26 12 C26 12.33 26 12.66 26 13 C17.83382806 13.84388104 10.15002924 14.06162705 2 13 C2.020625 12.25234375 2.04125 11.5046875 2.0625 10.734375 C1.98321823 7.26579739 1.01629669 4.30296423 0 1 C0 0.67 0 0.34 0 0 Z M25 6 C25.99 6.495 25.99 6.495 27 7 C26.01 7.495 26.01 7.495 25 8 C25 7.34 25 6.68 25 6 Z M2 14 C5.63 14 9.26 14 13 14 C13 14.33 13 14.66 13 15 C9.37 15 5.74 15 2 15 C2 14.67 2 14.34 2 14 Z " fill="#020101" transform="translate(87,157)"/>
<path d="M0 0 C28.71 0 57.42 0 87 0 C87 0.33 87 0.66 87 1 C82.05 1 77.1 1 72 1 C72 1.66 72 2.32 72 3 C78.93 3.495 78.93 3.495 86 4 C85.67 4.99 85.34 5.98 85 7 C81.37 7 77.74 7 74 7 C74 7.66 74 8.32 74 9 C72.35 9 70.7 9 69 9 C69 8.01 69 7.02 69 6 C65.04 5.67 61.08 5.34 57 5 C57 4.67 57 4.34 57 4 C57.95712891 3.92652344 57.95712891 3.92652344 58.93359375 3.8515625 C59.75988281 3.77679688 60.58617187 3.70203125 61.4375 3.625 C62.26121094 3.55539063 63.08492187 3.48578125 63.93359375 3.4140625 C64.61550781 3.27742188 65.29742187 3.14078125 66 3 C66.33 2.34 66.66 1.68 67 1 C44.89 1 22.78 1 0 1 C0 0.67 0 0.34 0 0 Z " fill="#D3C2B0" transform="translate(68,92)"/>
<path d="M0 0 C0.66 0 1.32 0 2 0 C2.5625 1.9375 2.5625 1.9375 3 4 C2 5 2 5 -0.09437561 5.12025452 C-1.01592941 5.11803391 -1.93748322 5.11581329 -2.88696289 5.11352539 C-3.92796646 5.11344986 -4.96897003 5.11337433 -6.04151917 5.11329651 C-7.1737944 5.10813522 -8.30606964 5.10297394 -9.47265625 5.09765625 C-10.62543564 5.0962413 -11.77821503 5.09482635 -12.96592712 5.09336853 C-16.66481064 5.08775005 -20.36363464 5.07519442 -24.0625 5.0625 C-26.56315017 5.05748738 -29.06380129 5.05292406 -31.56445312 5.04882812 C-37.70965588 5.03777462 -43.85482369 5.02101852 -50 5 C-50 4.01 -50 3.02 -50 2 C-33.5 1.67 -17 1.34 0 1 C0 0.67 0 0.34 0 0 Z " fill="#4C1C0B" transform="translate(50,77)"/>
<path d="M0 0 C22.77 0 45.54 0 69 0 C68.34 0.33 67.68 0.66 67 1 C66.67 2.32 66.34 3.64 66 5 C62.04 5 58.08 5 54 5 C54 4.34 54 3.68 54 3 C53.36772995 3.00666183 52.7354599 3.01332367 52.08403015 3.02018738 C45.51448645 3.08646147 38.94503741 3.13176761 32.37524414 3.16479492 C29.92207992 3.17989881 27.46894276 3.20038321 25.01586914 3.22631836 C21.49358445 3.26263057 17.97165619 3.27971036 14.44921875 3.29296875 C12.79910042 3.31619453 12.79910042 3.31619453 11.11564636 3.33988953 C9.58439873 3.34022942 9.58439873 3.34022942 8.0222168 3.34057617 C7.12286911 3.34723801 6.22352142 3.35389984 5.29692078 3.36076355 C3 3 3 3 0 0 Z " fill="#CBB7A2" transform="translate(96,0)"/>
<path d="M0 0 C2.95839355 -0.02689449 5.91654427 -0.04678741 8.875 -0.0625 C9.71675781 -0.07087891 10.55851562 -0.07925781 11.42578125 -0.08789062 C12.23144531 -0.09111328 13.03710938 -0.09433594 13.8671875 -0.09765625 C14.98262939 -0.10551147 14.98262939 -0.10551147 16.12060547 -0.11352539 C18 0 18 0 20 1 C20 1.66 20 2.32 20 3 C17.36 3 14.72 3 12 3 C12 2.34 12 1.68 12 1 C8.04 1 4.08 1 0 1 C0 0.67 0 0.34 0 0 Z M0 2 C11.52164009 1.6309795 11.52164009 1.6309795 17 4 C16.525625 4.4125 16.05125 4.825 15.5625 5.25 C13.83733482 7.182185 13.43415125 8.48192275 13 11 C11.35 11 9.7 11 8 11 C8 12.32 8 13.64 8 15 C5.69 15 3.38 15 1 15 C1 15.66 1 16.32 1 17 C-1.97 17 -4.94 17 -8 17 C-8 16.01 -8 15.02 -8 14 C-5.36 13.67 -2.72 13.34 0 13 C0.95308021 9.29357698 0.92648564 6.70594256 0 3 C0 2.67 0 2.34 0 2 Z " fill="#9E9E9E" transform="translate(102,178)"/>
<path d="M0 0 C6.27 0 12.54 0 19 0 C19 0.33 19 0.66 19 1 C18.030625 1.12375 17.06125 1.2475 16.0625 1.375 C14.5465625 1.684375 14.5465625 1.684375 13 2 C12.67 2.66 12.34 3.32 12 4 C11.505 4.598125 11.01 5.19625 10.5 5.8125 C8.83551637 8.23987197 8.40128549 10.11074449 8 13 C2.42289352 14.06795656 -2.39436958 13.82622671 -8 13 C-8 12.67 -8 12.34 -8 12 C-4.535 11.505 -4.535 11.505 -1 11 C-1 10.67 -1 10.34 -1 10 C-3.64 9.67 -6.28 9.34 -9 9 C-11 3.125 -11 3.125 -11 2 C-7.37 2 -3.74 2 0 2 C0 1.34 0 0.68 0 0 Z M-8 14 C-5.03 14 -2.06 14 1 14 C1 14.33 1 14.66 1 15 C-1.97 15 -4.94 15 -8 15 C-8 14.67 -8 14.34 -8 14 Z " fill="#020101" transform="translate(101,177)"/>
<path d="M0 0 C28.05 0 56.1 0 85 0 C85 0.33 85 0.66 85 1 C71.635 1.495 71.635 1.495 58 2 C58 2.33 58 2.66 58 3 C50.60290309 3.17687866 43.20564686 3.34283967 35.80799294 3.49477577 C32.37314896 3.56566714 28.9384739 3.64035018 25.50390625 3.72363281 C21.55750086 3.81916177 17.61085002 3.89831757 13.6640625 3.9765625 C12.42757965 4.00875885 11.1910968 4.0409552 9.91714478 4.0741272 C8.77611298 4.09429901 7.63508118 4.11447083 6.45947266 4.13525391 C4.94723618 4.16856308 4.94723618 4.16856308 3.40444946 4.20254517 C1 4 1 4 -1 2 C-0.67 1.34 -0.34 0.68 0 0 Z " fill="#000000" transform="translate(72,73)"/>
<path d="M0 0 C13.2 0 26.4 0 40 0 C39.34 1.65 38.68 3.3 38 5 C34.37 5 30.74 5 27 5 C27 4.67 27 4.34 27 4 C13.14 3.505 13.14 3.505 -1 3 C-0.67 2.01 -0.34 1.02 0 0 Z " fill="#797979" transform="translate(110,108)"/>
<path d="M0 0 C0 0.66 0 1.32 0 2 C-21.63464927 3.83012139 -43.34613384 3.17014281 -65 2 C-65 1.67 -65 1.34 -65 1 C-43.33530397 -0.19793025 -21.68899374 -0.10509017 0 0 Z " fill="#7A6E67" transform="translate(155,48)"/>
<path d="M0 0 C0.495 1.485 0.495 1.485 1 3 C-15.03558345 3.12488772 -30.98809891 2.89846339 -47 2 C-47 1.67 -47 1.34 -47 1 C-31.32065292 0.12806014 -15.70238071 -0.12806208 0 0 Z M-46 3 C-39.07 3 -32.14 3 -25 3 C-25.33 3.66 -25.66 4.32 -26 5 C-32.6 4.67 -39.2 4.34 -46 4 C-46 3.67 -46 3.34 -46 3 Z " fill="#665C51" transform="translate(138,52)"/>
<path d="M0 0 C4.10403363 -0.08694042 8.20783129 -0.14037149 12.3125 -0.1875 C13.47974609 -0.21263672 14.64699219 -0.23777344 15.84960938 -0.26367188 C16.96787109 -0.27333984 18.08613281 -0.28300781 19.23828125 -0.29296875 C20.26993408 -0.3086792 21.30158691 -0.32438965 22.36450195 -0.34057617 C25 0 25 0 26.86010742 1.33081055 C28 3 28 3 28 6 C28.33 6.99 28.66 7.98 29 9 C28.01 9 27.02 9 26 9 C26 9.66 26 10.32 26 11 C23.03 11 20.06 11 17 11 C17.33 8.69 17.66 6.38 18 4 C12.06 3.67 6.12 3.34 0 3 C0 2.01 0 1.02 0 0 Z " fill="#9F5B43" transform="translate(86,154)"/>
<path d="M0 0 C1.98 0 3.96 0 6 0 C6 0.99 6 1.98 6 3 C3.69 3 1.38 3 -1 3 C-0.67 2.01 -0.34 1.02 0 0 Z M-8.375 1.875 C-7.20710937 1.87242188 -6.03921875 1.86984375 -4.8359375 1.8671875 C-2 2 -2 2 -1 3 C1.32817964 3.36760731 3.6618385 3.70241581 6 4 C5 6 5 6 3.23535156 6.63256836 C0.81548862 7.0303287 -1.31812467 7.02010819 -3.765625 6.87890625 C-4.65507812 6.83056641 -5.54453125 6.78222656 -6.4609375 6.73242188 C-7.38132813 6.67634766 -8.30171875 6.62027344 -9.25 6.5625 C-10.18585938 6.51029297 -11.12171875 6.45808594 -12.0859375 6.40429688 C-14.39098887 6.27493175 -16.69557289 6.13997966 -19 6 C-18.67 5.01 -18.34 4.02 -18 3 C-14.60607349 1.86869116 -11.94665128 1.8670806 -8.375 1.875 Z " fill="#0B0B0B" transform="translate(137,102)"/>
<path d="M0 0 C8.25 0 16.5 0 25 0 C24.67 1.65 24.34 3.3 24 5 C22.02 5 20.04 5 18 5 C18 4.34 18 3.68 18 3 C11.73 3 5.46 3 -1 3 C-0.67 2.01 -0.34 1.02 0 0 Z M-12 3 C-8.37 3 -4.74 3 -1 3 C-1.33 3.66 -1.66 4.32 -2 5 C-5.3 4.67 -8.6 4.34 -12 4 C-12 3.67 -12 3.34 -12 3 Z " fill="#7B7B7B" transform="translate(102,174)"/>
<path d="M0 0 C3.3 0 6.6 0 10 0 C8.125 6.75 8.125 6.75 7 9 C4.69 9 2.38 9 0 9 C0 8.67 0 8.34 0 8 C-2.97 7.505 -2.97 7.505 -6 7 C-6 6.67 -6 6.34 -6 6 C-4.35 5.67 -2.7 5.34 -1 5 C-1.639375 4.87625 -2.27875 4.7525 -2.9375 4.625 C-3.618125 4.41875 -4.29875 4.2125 -5 4 C-5.33 3.34 -5.66 2.68 -6 2 C-4.02 2 -2.04 2 0 2 C0 1.34 0 0.68 0 0 Z M-27 4 C-20.07 4 -13.14 4 -6 4 C-6.33 4.66 -6.66 5.32 -7 6 C-9.20826378 6.02722517 -11.41662638 6.04649729 -13.625 6.0625 C-14.85476562 6.07410156 -16.08453125 6.08570312 -17.3515625 6.09765625 C-20.67723791 6.00863924 -23.74047588 5.63686087 -27 5 C-27 4.67 -27 4.34 -27 4 Z " fill="#000000" transform="translate(142,99)"/>
<path d="M0 0 C0 0.99 0 1.98 0 3 C-1.65 3.33 -3.3 3.66 -5 4 C-5 4.33 -5 4.66 -5 5 C-11.02596573 6.0712828 -16.88909517 6.09945415 -23 6 C-22.67 4.35 -22.34 2.7 -22 1 C-14.64206267 0.08839714 -7.41017023 -0.11459026 0 0 Z " fill="#1C1B19" transform="translate(96,0)"/>
<path d="M0 0 C5.28 0 10.56 0 16 0 C16.33 1.65 16.66 3.3 17 5 C6.77 5 -3.46 5 -14 5 C-14 4.01 -14 3.02 -14 2 C-9.38 2 -4.76 2 0 2 C0 1.34 0 0.68 0 0 Z " fill="#060203" transform="translate(70,51)"/>
<path d="M0 0 C13.2 0 26.4 0 40 0 C40 0.99 40 1.98 40 3 C27.13 3 14.26 3 1 3 C0.67 2.01 0.34 1.02 0 0 Z " fill="#020102" transform="translate(115,39)"/>
<path d="M0 0 C3.3 0 6.6 0 10 0 C9.67 1.65 9.34 3.3 9 5 C7.68 5 6.36 5 5 5 C5 5.66 5 6.32 5 7 C4.34 7 3.68 7 3 7 C3 7.66 3 8.32 3 9 C-0.0534135 9.29359745 -2.95743422 9.4451258 -6 9 C-8.5625 6.5 -8.5625 6.5 -10 4 C-5.545 3.505 -5.545 3.505 -1 3 C-0.67 2.01 -0.34 1.02 0 0 Z " fill="#844F3C" transform="translate(105,194)"/>
<path d="M0 0 C3.3 0 6.6 0 10 0 C10 0.33 10 0.66 10 1 C12.31 1.33 14.62 1.66 17 2 C16.67 2.99 16.34 3.98 16 5 C7.42 5 -1.16 5 -10 5 C-9.67 4.01 -9.34 3.02 -9 2 C-6.03 2 -3.06 2 0 2 C0 1.34 0 0.68 0 0 Z " fill="#000000" transform="translate(130,111)"/>
<path d="M0 0 C6.6 0 13.2 0 20 0 C20.33 0.99 20.66 1.98 21 3 C18.36 3.33 15.72 3.66 13 4 C13 4.33 13 4.66 13 5 C11.06318839 5.08107583 9.1254066 5.13922475 7.1875 5.1875 C6.10855469 5.22230469 5.02960938 5.25710937 3.91796875 5.29296875 C1 5 1 5 -0.88671875 3.48828125 C-1.43779297 2.75158203 -1.43779297 2.75158203 -2 2 C-1.34 2 -0.68 2 0 2 C0 1.34 0 0.68 0 0 Z " fill="#000000" transform="translate(183,199)"/>
<path d="M0 0 C1.32 0 2.64 0 4 0 C4 0.66 4 1.32 4 2 C2.68 2 1.36 2 0 2 C0 1.34 0 0.68 0 0 Z M-8 1 C-3.45194365 0.82164485 -0.1205746 1.00214565 4 3 C4 3.33 4 3.66 4 4 C2.35 4 0.7 4 -1 4 C-1 5.32 -1 6.64 -1 8 C-3.31 8 -5.62 8 -8 8 C-8 8.66 -8 9.32 -8 10 C-10.97 10 -13.94 10 -17 10 C-17 9.01 -17 8.02 -17 7 C-14.36 6.67 -11.72 6.34 -9 6 C-8.67 4.35 -8.34 2.7 -8 1 Z " fill="#A7A7A7" transform="translate(111,185)"/>
<path d="M0 0 C4.62 0 9.24 0 14 0 C14 0.66 14 1.32 14 2 C17.96 2 21.92 2 26 2 C26 2.33 26 2.66 26 3 C17.42 3 8.84 3 0 3 C0 3.66 0 4.32 0 5 C-3.96 5 -7.92 5 -12 5 C-12 4.67 -12 4.34 -12 4 C-8.37 4 -4.74 4 -1 4 C-0.67 2.68 -0.34 1.36 0 0 Z " fill="#9B8279" transform="translate(101,170)"/>
<path d="M0 0 C0.74617584 0.0028299 1.49235168 0.00565979 2.26113892 0.00857544 C4.62478238 0.01969563 6.98803518 0.04478429 9.3515625 0.0703125 C10.96223408 0.08035288 12.57291165 0.08947688 14.18359375 0.09765625 C18.11473194 0.1196081 22.04558117 0.15408065 25.9765625 0.1953125 C25.9765625 0.5253125 25.9765625 0.8553125 25.9765625 1.1953125 C15.4165625 1.1953125 4.8565625 1.1953125 -6.0234375 1.1953125 C-5.6934375 3.1753125 -5.3634375 5.1553125 -5.0234375 7.1953125 C-7.6634375 7.1953125 -10.3034375 7.1953125 -13.0234375 7.1953125 C-13.3534375 5.5453125 -13.6834375 3.8953125 -14.0234375 2.1953125 C-9.27798511 0.31920341 -5.04136207 -0.07301367 0 0 Z " fill="#ABA9A8" transform="translate(124.0234375,197.8046875)"/>
<path d="M0 0 C0 0.66 0 1.32 0 2 C2.64 2.33 5.28 2.66 8 3 C8 3.33 8 3.66 8 4 C2.36473035 5.20484722 -3.14536115 5.1129643 -8.875 5.0625 C-9.84953125 5.05798828 -10.8240625 5.05347656 -11.828125 5.04882812 C-14.21881434 5.03710906 -16.6093744 5.02070219 -19 5 C-18.67 3.68 -18.34 2.36 -18 1 C-15.56257869 0.83210874 -13.12507454 0.66563867 -10.6875 0.5 C-9.99720703 0.45230469 -9.30691406 0.40460938 -8.59570312 0.35546875 C-5.72337641 0.16120511 -2.87986212 0 0 0 Z " fill="#181817" transform="translate(134,94)"/>
<path d="M0 0 C0.93457031 0.00322266 1.86914062 0.00644531 2.83203125 0.00976562 C3.80011719 0.01814453 4.76820313 0.02652344 5.765625 0.03515625 C6.74917969 0.03966797 7.73273438 0.04417969 8.74609375 0.04882812 C11.16933291 0.06059142 13.59244773 0.07702941 16.015625 0.09765625 C16.015625 0.42765625 16.015625 0.75765625 16.015625 1.09765625 C14.365625 1.09765625 12.715625 1.09765625 11.015625 1.09765625 C11.015625 1.75765625 11.015625 2.41765625 11.015625 3.09765625 C8.05705091 3.15144851 5.09944779 3.19122718 2.140625 3.22265625 C0.87798828 3.24779297 0.87798828 3.24779297 -0.41015625 3.2734375 C-1.21582031 3.27988281 -2.02148438 3.28632813 -2.8515625 3.29296875 C-3.59519043 3.30344238 -4.33881836 3.31391602 -5.10498047 3.32470703 C-6.984375 3.09765625 -6.984375 3.09765625 -8.984375 1.09765625 C-5.9161112 0.20015803 -3.19167524 -0.01946143 0 0 Z " fill="#5D5D5D" transform="translate(136.984375,171.90234375)"/>
<path d="M0 0 C4.29 0 8.58 0 13 0 C13.33 1.32 13.66 2.64 14 4 C11.87527424 4.05386629 9.75016348 4.09273071 7.625 4.125 C5.84996094 4.15980469 5.84996094 4.15980469 4.0390625 4.1953125 C1 4 1 4 -1 2 C-0.67 1.34 -0.34 0.68 0 0 Z M14 0 C22.58 0 31.16 0 40 0 C40 0.33 40 0.66 40 1 C31.42 1.33 22.84 1.66 14 2 C14 1.34 14 0.68 14 0 Z " fill="#000000" transform="translate(87,173)"/>
<path d="M0 0 C0 0.99 0 1.98 0 3 C-7.26 3 -14.52 3 -22 3 C-22 2.34 -22 1.68 -22 1 C-14.66236293 -0.17402193 -7.41834582 -0.09377123 0 0 Z " fill="#8F8F8F" transform="translate(136,98)"/>
<path d="M0 0 C1.98 0 3.96 0 6 0 C6 0.99 6 1.98 6 3 C3.69 3 1.38 3 -1 3 C-0.67 2.01 -0.34 1.02 0 0 Z M-15 2 C-12.85423363 1.97314062 -10.70837355 1.95366912 -8.5625 1.9375 C-7.36753906 1.92589844 -6.17257813 1.91429688 -4.94140625 1.90234375 C-2 2 -2 2 -1 3 C1.32817964 3.36760731 3.6618385 3.70241581 6 4 C6 4.33 6 4.66 6 5 C1.71 5 -2.58 5 -7 5 C-7 4.67 -7 4.34 -7 4 C-9.64 3.67 -12.28 3.34 -15 3 C-15 2.67 -15 2.34 -15 2 Z " fill="#858585" transform="translate(137,102)"/>
<path d="M0 0 C0.33 0.99 0.66 1.98 1 3 C-4.94 3 -10.88 3 -17 3 C-17.33 2.34 -17.66 1.68 -18 1 C-11.93303301 0.22959149 -6.11485027 -0.09706112 0 0 Z " fill="#86796B" transform="translate(70,68)"/>
<path d="M0 0 C6.93 0 13.86 0 21 0 C21.33 0.99 21.66 1.98 22 3 C14.74 3 7.48 3 0 3 C0 2.01 0 1.02 0 0 Z " fill="#000000" transform="translate(88,39)"/>
<path d="M0 0 C0.33 1.65 0.66 3.3 1 5 C-1.64 5 -4.28 5 -7 5 C-7.33 5.66 -7.66 6.32 -8 7 C-8.66 5.35 -9.32 3.7 -10 2 C-6.3558226 -0.4294516 -4.28758728 -0.16179575 0 0 Z " fill="#642611" transform="translate(130,158)"/>
<path d="M0 0 C0.66 0.33 1.32 0.66 2 1 C2 1.66 2 2.32 2 3 C1.01 3 0.02 3 -1 3 C-1 3.66 -1 4.32 -1 5 C-4.06246747 6.78409802 -6.22079273 7.22880021 -9.75 7.125 C-10.54921875 7.10695313 -11.3484375 7.08890625 -12.171875 7.0703125 C-12.77515625 7.04710938 -13.3784375 7.02390625 -14 7 C-13.67 6.01 -13.34 5.02 -13 4 C-10.3125 3.0859375 -10.3125 3.0859375 -7 2.375 C-3.18924698 1.82052907 -3.18924698 1.82052907 0 0 Z " fill="#9D8F7E" transform="translate(71,76)"/>
<path d="M0 0 C1.32 0.33 2.64 0.66 4 1 C4 2.32 4 3.64 4 5 C1.03 5 -1.94 5 -5 5 C-5.33 5.99 -5.66 6.98 -6 8 C-8.97 7.67 -11.94 7.34 -15 7 C-15 6.67 -15 6.34 -15 6 C-12.36 6 -9.72 6 -7 6 C-7 5.34 -7 4.68 -7 4 C-6.21625 3.855625 -5.4325 3.71125 -4.625 3.5625 C-2.03578982 3.12201075 -2.03578982 3.12201075 0 2 C0 1.34 0 0.68 0 0 Z " fill="#050201" transform="translate(110,189)"/>
<path d="M0 0 C2.64 0 5.28 0 8 0 C7.67 0.99 7.34 1.98 7 3 C4.36 3 1.72 3 -1 3 C-0.67 2.01 -0.34 1.02 0 0 Z M6 4 C6 4.33 6 4.66 6 5 C2.37 5 -1.26 5 -5 5 C-0.8204355 2.21362367 1.14668677 3.20437488 6 4 Z " fill="#9A8B7B" transform="translate(142,108)"/>
<path d="M0 0 C0.33 0.99 0.66 1.98 1 3 C-2.3 3 -5.6 3 -9 3 C-9.33 2.34 -9.66 1.68 -10 1 C-6.52674819 -0.1577506 -3.63932552 -0.06866652 0 0 Z M-10 3 C-8 5 -8 5 -8 7 C-8.99 7.33 -9.98 7.66 -11 8 C-10.67 6.35 -10.34 4.7 -10 3 Z " fill="#726356" transform="translate(63,76)"/>
<path d="M0 0 C3.63 0 7.26 0 11 0 C11 0.66 11 1.32 11 2 C14.63 2 18.26 2 22 2 C22 2.33 22 2.66 22 3 C7.25213432 3.20233352 7.25213432 3.20233352 1 2 C0.67 1.34 0.34 0.68 0 0 Z " fill="#7D547B" transform="translate(87,36)"/>
<path d="M0 0 C0.66 0.66 1.32 1.32 2 2 C-0.31 2 -2.62 2 -5 2 C-5 2.66 -5 3.32 -5 4 C-7.97 4 -10.94 4 -14 4 C-14 3.01 -14 2.02 -14 1 C-4.44705882 -0.31764706 -4.44705882 -0.31764706 0 0 Z " fill="#A8583C" transform="translate(108,191)"/>
<path d="M0 0 C0.80566406 0.00322266 1.61132812 0.00644531 2.44140625 0.00976562 C3.70404297 0.02233398 3.70404297 0.02233398 4.9921875 0.03515625 C5.84167969 0.03966797 6.69117188 0.04417969 7.56640625 0.04882812 C9.66669659 0.06062751 11.7669508 0.07856319 13.8671875 0.09765625 C13.8671875 0.42765625 13.8671875 0.75765625 13.8671875 1.09765625 C8.9171875 1.09765625 3.9671875 1.09765625 -1.1328125 1.09765625 C-1.1328125 1.75765625 -1.1328125 2.41765625 -1.1328125 3.09765625 C-3.1128125 3.42765625 -5.0928125 3.75765625 -7.1328125 4.09765625 C-6.8028125 3.10765625 -6.4728125 2.11765625 -6.1328125 1.09765625 C-3.8362755 -0.05061225 -2.54968083 -0.0179555 0 0 Z " fill="#877A6D" transform="translate(141.1328125,91.90234375)"/>
<path d="M0 0 C5.28 0 10.56 0 16 0 C14 3 14 3 10.25 3.75 C6.68205423 4.08205335 3.51065714 3.78989786 0 3 C0 2.01 0 1.02 0 0 Z " fill="#000000" transform="translate(54,65)"/>
<path d="M0 0 C4.62 0 9.24 0 14 0 C14 0.33 14 0.66 14 1 C11.69 1 9.38 1 7 1 C7 1.66 7 2.32 7 3 C4.03 3 1.06 3 -2 3 C-1.34 2.67 -0.68 2.34 0 2 C0 1.34 0 0.68 0 0 Z " fill="#814A7F" transform="translate(90,32)"/>
<path d="M0 0 C1.65 0 3.3 0 5 0 C4.01 0.495 4.01 0.495 3 1 C3 1.99 3 2.98 3 4 C4.98 4 6.96 4 9 4 C9 4.33 9 4.66 9 5 C6.36 5 3.72 5 1 5 C1 4.34 1 3.68 1 3 C-1.97 3 -4.94 3 -8 3 C-8 2.67 -8 2.34 -8 2 C-5.36 2 -2.72 2 0 2 C0 1.34 0 0.68 0 0 Z " fill="#020102" transform="translate(97,33)"/>
<path d="M0 0 C2.97 0 5.94 0 9 0 C8.67 0.99 8.34 1.98 8 3 C5.36 3.33 2.72 3.66 0 4 C-0.33 3.34 -0.66 2.68 -1 2 C-0.67 1.34 -0.34 0.68 0 0 Z " fill="#080605" transform="translate(101,185)"/>
<path d="M0 0 C0 0.66 0 1.32 0 2 C-0.99 2 -1.98 2 -3 2 C-3 2.66 -3 3.32 -3 4 C-4.9375 3.625 -4.9375 3.625 -7 3 C-7.33 2.34 -7.66 1.68 -8 1 C-3.375 -1.125 -3.375 -1.125 0 0 Z " fill="#988A79" transform="translate(72,73)"/>
<path d="M0 0 C1.98 0 3.96 0 6 0 C6.33 0.99 6.66 1.98 7 3 C4.69 3 2.38 3 0 3 C0 2.01 0 1.02 0 0 Z " fill="#703569" transform="translate(100,34)"/>
</svg>
